<mxfile host="app.diagrams.net" agent="Mozilla/5.0 (Macintosh; Intel Mac OS X 10_15_7) AppleWebKit/605.1.15 (KHTML, like Gecko) Version/17.6 Safari/605.1.15" version="28.2.5">
  <diagram name="Page-1" id="Zs9SOal4AcmBSG9abbI1">
    <mxGraphModel dx="1026" dy="610" grid="1" gridSize="10" guides="1" tooltips="1" connect="1" arrows="1" fold="1" page="1" pageScale="1" pageWidth="850" pageHeight="1100" math="0" shadow="0">
      <root>
        <mxCell id="0" />
        <mxCell id="1" parent="0" />
        <mxCell id="ytc4d9_cMdGeamjnn8tF-111" value="&lt;b&gt;RO2&lt;/b&gt;&lt;div&gt;Dark Energy tests&lt;/div&gt;" style="rounded=1;whiteSpace=wrap;html=1;" vertex="1" parent="1">
          <mxGeometry x="730" y="730" width="110" height="50" as="geometry" />
        </mxCell>
        <mxCell id="ytc4d9_cMdGeamjnn8tF-112" value="&lt;b&gt;RO3&lt;/b&gt;&lt;div&gt;Inflation tests&lt;/div&gt;" style="rounded=1;whiteSpace=wrap;html=1;" vertex="1" parent="1">
          <mxGeometry x="730" y="910" width="110" height="50" as="geometry" />
        </mxCell>
        <mxCell id="ytc4d9_cMdGeamjnn8tF-113" value="WP-B&lt;div&gt;New technologies&lt;/div&gt;" style="rounded=0;whiteSpace=wrap;html=1;" vertex="1" parent="1">
          <mxGeometry x="270" y="870" width="105" height="40" as="geometry" />
        </mxCell>
        <mxCell id="ytc4d9_cMdGeamjnn8tF-114" value="WP-A&lt;div&gt;Galaxy selections&lt;/div&gt;" style="rounded=0;whiteSpace=wrap;html=1;" vertex="1" parent="1">
          <mxGeometry x="270" y="780" width="107.5" height="40" as="geometry" />
        </mxCell>
        <mxCell id="ytc4d9_cMdGeamjnn8tF-115" value="WP-C&lt;div&gt;Lensing-foreground models&lt;/div&gt;" style="rounded=0;whiteSpace=wrap;html=1;" vertex="1" parent="1">
          <mxGeometry x="500" y="820" width="110" height="50" as="geometry" />
        </mxCell>
        <mxCell id="ytc4d9_cMdGeamjnn8tF-116" value="WP-D&lt;div&gt;Lensing x 3D clustering&amp;nbsp;&lt;/div&gt;" style="rounded=0;whiteSpace=wrap;html=1;" vertex="1" parent="1">
          <mxGeometry x="500" y="730" width="110" height="50" as="geometry" />
        </mxCell>
        <mxCell id="ytc4d9_cMdGeamjnn8tF-117" value="WP-E&lt;div&gt;Delensing&lt;/div&gt;" style="rounded=0;whiteSpace=wrap;html=1;" vertex="1" parent="1">
          <mxGeometry x="500" y="910" width="110" height="50" as="geometry" />
        </mxCell>
        <mxCell id="ytc4d9_cMdGeamjnn8tF-141" value="" style="endArrow=classic;html=1;rounded=0;entryX=0;entryY=0.5;entryDx=0;entryDy=0;" edge="1" parent="1" target="ytc4d9_cMdGeamjnn8tF-112">
          <mxGeometry relative="1" as="geometry">
            <mxPoint x="610" y="935.75" as="sourcePoint" />
            <mxPoint x="710" y="936" as="targetPoint" />
          </mxGeometry>
        </mxCell>
        <mxCell id="ytc4d9_cMdGeamjnn8tF-142" value="(&lt;span style=&quot;color: rgb(0, 153, 0);&quot;&gt;D-E4&lt;/span&gt;)" style="edgeLabel;resizable=0;html=1;;align=center;verticalAlign=middle;" connectable="0" vertex="1" parent="ytc4d9_cMdGeamjnn8tF-141">
          <mxGeometry relative="1" as="geometry">
            <mxPoint as="offset" />
          </mxGeometry>
        </mxCell>
        <mxCell id="ytc4d9_cMdGeamjnn8tF-143" value="" style="endArrow=classic;html=1;rounded=0;" edge="1" parent="1">
          <mxGeometry relative="1" as="geometry">
            <mxPoint x="610" y="750" as="sourcePoint" />
            <mxPoint x="730" y="750" as="targetPoint" />
          </mxGeometry>
        </mxCell>
        <mxCell id="ytc4d9_cMdGeamjnn8tF-144" value="(&lt;span style=&quot;color: rgb(0, 153, 0);&quot;&gt;D-D1&lt;/span&gt;)" style="edgeLabel;resizable=0;html=1;;align=center;verticalAlign=middle;" connectable="0" vertex="1" parent="ytc4d9_cMdGeamjnn8tF-143">
          <mxGeometry relative="1" as="geometry">
            <mxPoint as="offset" />
          </mxGeometry>
        </mxCell>
        <mxCell id="ytc4d9_cMdGeamjnn8tF-145" value="" style="endArrow=classic;html=1;rounded=0;entryX=-0.005;entryY=0.64;entryDx=0;entryDy=0;exitX=1;exitY=0.5;exitDx=0;exitDy=0;entryPerimeter=0;" edge="1" parent="1" source="ytc4d9_cMdGeamjnn8tF-114" target="ytc4d9_cMdGeamjnn8tF-116">
          <mxGeometry width="50" height="50" relative="1" as="geometry">
            <mxPoint x="378" y="780" as="sourcePoint" />
            <mxPoint x="500" y="776" as="targetPoint" />
          </mxGeometry>
        </mxCell>
        <mxCell id="ytc4d9_cMdGeamjnn8tF-146" value="(&lt;span style=&quot;color: rgb(0, 153, 0);&quot;&gt;D-A1&lt;/span&gt;)" style="edgeLabel;html=1;align=center;verticalAlign=middle;resizable=0;points=[];" vertex="1" connectable="0" parent="ytc4d9_cMdGeamjnn8tF-145">
          <mxGeometry x="-0.3385" y="-2" relative="1" as="geometry">
            <mxPoint x="2" y="-2" as="offset" />
          </mxGeometry>
        </mxCell>
        <mxCell id="ytc4d9_cMdGeamjnn8tF-147" value="" style="endArrow=classic;html=1;rounded=0;entryX=-0.009;entryY=0.41;entryDx=0;entryDy=0;exitX=1;exitY=0.75;exitDx=0;exitDy=0;entryPerimeter=0;" edge="1" parent="1" target="ytc4d9_cMdGeamjnn8tF-117">
          <mxGeometry width="50" height="50" relative="1" as="geometry">
            <mxPoint x="377.5" y="799" as="sourcePoint" />
            <mxPoint x="508.5" y="870" as="targetPoint" />
          </mxGeometry>
        </mxCell>
        <mxCell id="ytc4d9_cMdGeamjnn8tF-148" value="(&lt;span style=&quot;color: rgb(0, 153, 0);&quot;&gt;D-A2&lt;/span&gt;)" style="edgeLabel;html=1;align=center;verticalAlign=middle;resizable=0;points=[];" vertex="1" connectable="0" parent="ytc4d9_cMdGeamjnn8tF-147">
          <mxGeometry x="-0.3385" y="-2" relative="1" as="geometry">
            <mxPoint x="4" y="-4" as="offset" />
          </mxGeometry>
        </mxCell>
        <mxCell id="ytc4d9_cMdGeamjnn8tF-151" value="" style="endArrow=none;html=1;rounded=0;" edge="1" parent="1">
          <mxGeometry width="50" height="50" relative="1" as="geometry">
            <mxPoint x="450" y="950" as="sourcePoint" />
            <mxPoint x="450" y="740" as="targetPoint" />
          </mxGeometry>
        </mxCell>
        <mxCell id="ytc4d9_cMdGeamjnn8tF-152" value="" style="endArrow=classic;html=1;rounded=0;entryX=-0.004;entryY=0.19;entryDx=0;entryDy=0;entryPerimeter=0;" edge="1" parent="1" target="ytc4d9_cMdGeamjnn8tF-116">
          <mxGeometry width="50" height="50" relative="1" as="geometry">
            <mxPoint x="450" y="740" as="sourcePoint" />
            <mxPoint x="520" y="690" as="targetPoint" />
          </mxGeometry>
        </mxCell>
        <mxCell id="ytc4d9_cMdGeamjnn8tF-153" value="" style="endArrow=classic;html=1;rounded=0;entryX=-0.004;entryY=0.19;entryDx=0;entryDy=0;entryPerimeter=0;" edge="1" parent="1">
          <mxGeometry width="50" height="50" relative="1" as="geometry">
            <mxPoint x="450" y="950" as="sourcePoint" />
            <mxPoint x="500" y="950" as="targetPoint" />
          </mxGeometry>
        </mxCell>
        <mxCell id="ytc4d9_cMdGeamjnn8tF-154" value="(&lt;span style=&quot;color: rgb(0, 153, 0);&quot;&gt;D-B1&lt;/span&gt;&lt;span style=&quot;color: rgb(0, 0, 0);&quot;&gt;)&lt;/span&gt;&lt;div&gt;&amp;amp;&lt;/div&gt;&lt;div&gt;&lt;span style=&quot;color: rgb(0, 153, 0);&quot;&gt;&lt;span style=&quot;color: rgb(0, 0, 0);&quot;&gt;(&lt;/span&gt;D-B2&lt;/span&gt;)&lt;/div&gt;&lt;div&gt;&lt;div&gt;&amp;amp;&lt;/div&gt;&lt;div&gt;&lt;span&gt;&lt;span style=&quot;color: rgb(0, 0, 0);&quot;&gt;(&lt;/span&gt;&lt;span style=&quot;color: rgb(255, 217, 102);&quot;&gt;D-B4&lt;/span&gt;&lt;/span&gt;)&lt;/div&gt;&lt;/div&gt;" style="endArrow=none;html=1;rounded=0;" edge="1" parent="1">
          <mxGeometry x="-0.3333" width="50" height="50" relative="1" as="geometry">
            <mxPoint x="375" y="890" as="sourcePoint" />
            <mxPoint x="450" y="890" as="targetPoint" />
            <mxPoint as="offset" />
          </mxGeometry>
        </mxCell>
        <mxCell id="ytc4d9_cMdGeamjnn8tF-157" value="" style="endArrow=classic;startArrow=classic;html=1;rounded=0;entryX=0;entryY=0.407;entryDx=0;entryDy=0;entryPerimeter=0;exitX=1;exitY=0.5;exitDx=0;exitDy=0;" edge="1" parent="1" source="ytc4d9_cMdGeamjnn8tF-116" target="ytc4d9_cMdGeamjnn8tF-110">
          <mxGeometry width="50" height="50" relative="1" as="geometry">
            <mxPoint x="610" y="840" as="sourcePoint" />
            <mxPoint x="789.1200000000001" y="841.6000000000001" as="targetPoint" />
          </mxGeometry>
        </mxCell>
        <mxCell id="ytc4d9_cMdGeamjnn8tF-158" value="" style="endArrow=classic;html=1;rounded=0;" edge="1" parent="1">
          <mxGeometry width="50" height="50" relative="1" as="geometry">
            <mxPoint x="790" y="850" as="sourcePoint" />
            <mxPoint x="610" y="930" as="targetPoint" />
          </mxGeometry>
        </mxCell>
        <mxCell id="ytc4d9_cMdGeamjnn8tF-160" value="" style="endArrow=classic;html=1;rounded=0;entryX=0;entryY=0.398;entryDx=0;entryDy=0;entryPerimeter=0;" edge="1" parent="1" target="ytc4d9_cMdGeamjnn8tF-112">
          <mxGeometry relative="1" as="geometry">
            <mxPoint x="610" y="760" as="sourcePoint" />
            <mxPoint x="800" y="807" as="targetPoint" />
          </mxGeometry>
        </mxCell>
        <mxCell id="ytc4d9_cMdGeamjnn8tF-161" value="(&lt;span style=&quot;color: rgb(255, 215, 114);&quot;&gt;D-D3&lt;/span&gt;)" style="edgeLabel;resizable=0;html=1;;align=center;verticalAlign=middle;" connectable="0" vertex="1" parent="ytc4d9_cMdGeamjnn8tF-160">
          <mxGeometry relative="1" as="geometry">
            <mxPoint x="-32" y="-45" as="offset" />
          </mxGeometry>
        </mxCell>
        <mxCell id="ytc4d9_cMdGeamjnn8tF-162" value="" style="endArrow=classic;html=1;rounded=0;" edge="1" parent="1" source="ytc4d9_cMdGeamjnn8tF-110">
          <mxGeometry width="50" height="50" relative="1" as="geometry">
            <mxPoint x="610" y="846" as="sourcePoint" />
            <mxPoint x="790" y="846" as="targetPoint" />
          </mxGeometry>
        </mxCell>
        <mxCell id="ytc4d9_cMdGeamjnn8tF-164" value="" style="endArrow=classic;html=1;rounded=0;" edge="1" parent="1">
          <mxGeometry width="50" height="50" relative="1" as="geometry">
            <mxPoint x="480" y="749.75" as="sourcePoint" />
            <mxPoint x="500" y="749.75" as="targetPoint" />
          </mxGeometry>
        </mxCell>
        <mxCell id="ytc4d9_cMdGeamjnn8tF-165" value="" style="endArrow=none;html=1;rounded=0;" edge="1" parent="1">
          <mxGeometry width="50" height="50" relative="1" as="geometry">
            <mxPoint x="480" y="939.75" as="sourcePoint" />
            <mxPoint x="480" y="749.75" as="targetPoint" />
          </mxGeometry>
        </mxCell>
        <mxCell id="ytc4d9_cMdGeamjnn8tF-169" value="(&lt;span style=&quot;color: rgb(0, 153, 0);&quot;&gt;D-C2&lt;/span&gt;)&lt;div&gt;&amp;amp;&lt;/div&gt;&lt;div&gt;(&lt;span style=&quot;color: rgb(0, 153, 0);&quot;&gt;D-C4&lt;/span&gt;)&lt;br&gt;&lt;/div&gt;" style="edgeLabel;html=1;align=center;verticalAlign=middle;resizable=0;points=[];" vertex="1" connectable="0" parent="ytc4d9_cMdGeamjnn8tF-165">
          <mxGeometry x="0.4026" y="2" relative="1" as="geometry">
            <mxPoint y="-7" as="offset" />
          </mxGeometry>
        </mxCell>
        <mxCell id="ytc4d9_cMdGeamjnn8tF-166" value="" style="endArrow=classic;html=1;rounded=0;" edge="1" parent="1">
          <mxGeometry width="50" height="50" relative="1" as="geometry">
            <mxPoint x="480" y="939.75" as="sourcePoint" />
            <mxPoint x="500" y="939.75" as="targetPoint" />
          </mxGeometry>
        </mxCell>
        <mxCell id="ytc4d9_cMdGeamjnn8tF-167" value="" style="endArrow=none;html=1;rounded=0;" edge="1" parent="1">
          <mxGeometry width="50" height="50" relative="1" as="geometry">
            <mxPoint x="480" y="840" as="sourcePoint" />
            <mxPoint x="500" y="840" as="targetPoint" />
          </mxGeometry>
        </mxCell>
        <mxCell id="ytc4d9_cMdGeamjnn8tF-171" value="" style="endArrow=none;html=1;rounded=0;" edge="1" parent="1">
          <mxGeometry width="50" height="50" relative="1" as="geometry">
            <mxPoint x="260" y="970" as="sourcePoint" />
            <mxPoint x="260" y="710" as="targetPoint" />
          </mxGeometry>
        </mxCell>
        <mxCell id="ytc4d9_cMdGeamjnn8tF-172" value="" style="endArrow=none;html=1;rounded=0;" edge="1" parent="1">
          <mxGeometry width="50" height="50" relative="1" as="geometry">
            <mxPoint x="560" y="710" as="sourcePoint" />
            <mxPoint x="260" y="710" as="targetPoint" />
          </mxGeometry>
        </mxCell>
        <mxCell id="ytc4d9_cMdGeamjnn8tF-176" value="&lt;span style=&quot;caret-color: rgb(0, 0, 0); color: rgb(0, 0, 0); font-family: Helvetica; font-size: 11px; font-style: normal; font-variant-caps: normal; font-weight: 400; letter-spacing: normal; text-align: center; text-indent: 0px; text-transform: none; white-space: nowrap; word-spacing: 0px; -webkit-text-stroke-width: 0px; background-color: rgb(255, 255, 255); text-decoration: none; float: none; display: inline !important;&quot;&gt;(&lt;/span&gt;&lt;span style=&quot;font-family: Helvetica; font-size: 11px; font-style: normal; font-variant-caps: normal; font-weight: 400; letter-spacing: normal; text-align: center; text-indent: 0px; text-transform: none; white-space: nowrap; word-spacing: 0px; -webkit-text-stroke-width: 0px; background-color: rgb(255, 255, 255); text-decoration: none; color: light-dark(rgb(0, 153, 0), rgb(50, 181, 50));&quot;&gt;D-E2&lt;/span&gt;&lt;span style=&quot;caret-color: rgb(0, 0, 0); color: rgb(0, 0, 0); font-family: Helvetica; font-size: 11px; font-style: normal; font-variant-caps: normal; font-weight: 400; letter-spacing: normal; text-align: center; text-indent: 0px; text-transform: none; white-space: nowrap; word-spacing: 0px; -webkit-text-stroke-width: 0px; background-color: rgb(255, 255, 255); text-decoration: none; float: none; display: inline !important;&quot;&gt;) &amp;amp;&amp;nbsp;&lt;/span&gt;(&lt;span style=&quot;color: rgb(0, 153, 0);&quot;&gt;D-E7&lt;/span&gt;)" style="edgeLabel;html=1;align=center;verticalAlign=middle;resizable=0;points=[];" vertex="1" connectable="0" parent="ytc4d9_cMdGeamjnn8tF-172">
          <mxGeometry x="0.4516" y="1" relative="1" as="geometry">
            <mxPoint x="75" y="-1" as="offset" />
          </mxGeometry>
        </mxCell>
        <mxCell id="ytc4d9_cMdGeamjnn8tF-173" value="" style="endArrow=none;html=1;rounded=0;" edge="1" parent="1">
          <mxGeometry width="50" height="50" relative="1" as="geometry">
            <mxPoint x="560" y="970" as="sourcePoint" />
            <mxPoint x="260" y="970" as="targetPoint" />
          </mxGeometry>
        </mxCell>
        <mxCell id="ytc4d9_cMdGeamjnn8tF-174" value="" style="endArrow=classic;html=1;rounded=0;" edge="1" parent="1">
          <mxGeometry width="50" height="50" relative="1" as="geometry">
            <mxPoint x="560" y="710" as="sourcePoint" />
            <mxPoint x="560" y="730" as="targetPoint" />
          </mxGeometry>
        </mxCell>
        <mxCell id="ytc4d9_cMdGeamjnn8tF-175" value="" style="endArrow=none;html=1;rounded=0;" edge="1" parent="1">
          <mxGeometry width="50" height="50" relative="1" as="geometry">
            <mxPoint x="560" y="970" as="sourcePoint" />
            <mxPoint x="560" y="960" as="targetPoint" />
          </mxGeometry>
        </mxCell>
        <mxCell id="ytc4d9_cMdGeamjnn8tF-177" value="" style="endArrow=classic;html=1;rounded=0;" edge="1" parent="1" target="ytc4d9_cMdGeamjnn8tF-110">
          <mxGeometry width="50" height="50" relative="1" as="geometry">
            <mxPoint x="610" y="846" as="sourcePoint" />
            <mxPoint x="790" y="846" as="targetPoint" />
          </mxGeometry>
        </mxCell>
        <mxCell id="ytc4d9_cMdGeamjnn8tF-178" value="(&lt;span style=&quot;color: rgb(0, 153, 0);&quot;&gt;D-C1&lt;/span&gt;&lt;span style=&quot;color: rgb(0, 0, 0);&quot;&gt;)&lt;/span&gt;&lt;div&gt;&amp;amp;&lt;/div&gt;&lt;div&gt;&lt;span style=&quot;color: rgb(0, 153, 0);&quot;&gt;&lt;span style=&quot;color: rgb(0, 0, 0);&quot;&gt;(&lt;/span&gt;D-C3&lt;/span&gt;)&lt;br&gt;&lt;/div&gt;" style="edgeLabel;html=1;align=center;verticalAlign=middle;resizable=0;points=[];" vertex="1" connectable="0" parent="ytc4d9_cMdGeamjnn8tF-177">
          <mxGeometry x="-0.6278" y="2" relative="1" as="geometry">
            <mxPoint x="-2" y="1" as="offset" />
          </mxGeometry>
        </mxCell>
        <mxCell id="ytc4d9_cMdGeamjnn8tF-110" value="&lt;b&gt;RO1&lt;/b&gt;&lt;div&gt;Unlocking CMB&amp;nbsp;&lt;/div&gt;&lt;div&gt;small scales&lt;/div&gt;" style="rounded=1;whiteSpace=wrap;html=1;" vertex="1" parent="1">
          <mxGeometry x="730" y="820" width="110" height="50" as="geometry" />
        </mxCell>
      </root>
    </mxGraphModel>
  </diagram>
</mxfile>
